<svg width="21" height="53" viewBox="0 0 21 53" fill="none" xmlns="http://www.w3.org/2000/svg">
<path d="M8.39204 52.1715C8.14299 52.1715 7.94375 52.0744 7.79432 51.9531C7.29621 51.5891 6.44944 50.4001 6.44944 46.639V33.9019C6.44944 32.2926 5.14484 30.988 3.53553 30.988V30.988C1.86688 30.988 1.26916 29.4592 1.05747 28.5614C0.845771 27.6394 0.658982 25.7709 1.75481 23.3201L11.1815 2.452C12.4516 -0.362769 13.4852 -0.168647 13.9833 0.195331C14.4814 0.55931 15.3282 1.74831 15.3282 5.50942V18.2466C15.3282 19.8559 16.6328 21.1605 18.2421 21.1605V21.1605C19.9107 21.1605 20.5085 22.6892 20.7202 23.5871C20.9318 24.5091 21.1186 26.3776 20.0228 28.8283L10.5962 49.6964C9.71206 51.6619 8.93999 52.1715 8.39204 52.1715ZM13.4583 5.05451C13.4489 4.58508 12.7797 4.44966 12.5886 4.87852V4.87852L3.16195 25.7467C3.07142 25.9483 3.00104 26.1303 2.94645 26.2909C2.77412 26.798 2.99996 27.3724 3.53553 27.3724V27.3724H7.38338C7.89394 27.3724 8.31733 28.1975 8.31733 29.1923V46.6633C8.31733 46.8268 8.31936 46.9781 8.32301 47.1176C8.33587 47.6099 8.98861 47.7439 9.18905 47.2942V47.2942L18.6157 26.4261C18.7062 26.2245 18.7766 26.0425 18.8312 25.8819C19.0035 25.3748 18.7777 24.8003 18.2421 24.8003V24.8003H14.3942C13.8837 24.8003 13.4603 23.9753 13.4603 22.9804V5.50942C13.462 5.34519 13.4611 5.19385 13.4583 5.05451Z" fill="#B1FD51"/>
<path d="M8.39204 52.1715C8.14299 52.1715 7.94375 52.0744 7.79432 51.9531C7.29621 51.5891 6.44944 50.4001 6.44944 46.639V33.9019C6.44944 32.2926 5.14484 30.988 3.53553 30.988V30.988C1.86688 30.988 1.26916 29.4592 1.05747 28.5614C0.845771 27.6394 0.658982 25.7709 1.75481 23.3201L11.1815 2.452C12.4516 -0.362769 13.4852 -0.168647 13.9833 0.195331C14.4814 0.55931 15.3282 1.74831 15.3282 5.50942V18.2466C15.3282 19.8559 16.6328 21.1605 18.2421 21.1605V21.1605C19.9107 21.1605 20.5085 22.6892 20.7202 23.5871C20.9318 24.5091 21.1186 26.3776 20.0228 28.8283L10.5962 49.6964C9.71206 51.6619 8.93999 52.1715 8.39204 52.1715ZM13.4583 5.05451C13.4489 4.58508 12.7797 4.44966 12.5886 4.87852V4.87852L3.16195 25.7467C3.07142 25.9483 3.00104 26.1303 2.94645 26.2909C2.77412 26.798 2.99996 27.3724 3.53553 27.3724V27.3724H7.38338C7.89394 27.3724 8.31733 28.1975 8.31733 29.1923V46.6633C8.31733 46.8268 8.31936 46.9781 8.32301 47.1176C8.33587 47.6099 8.98861 47.7439 9.18905 47.2942V47.2942L18.6157 26.4261C18.7062 26.2245 18.7766 26.0425 18.8312 25.8819C19.0035 25.3748 18.7777 24.8003 18.2421 24.8003V24.8003H14.3942C13.8837 24.8003 13.4603 23.9753 13.4603 22.9804V5.50942C13.462 5.34519 13.4611 5.19385 13.4583 5.05451Z" fill="black" fill-opacity="0.2"/>
</svg>
